<?xml version="1.0" encoding="UTF-8"?>
<svg width="150px" height="150px" viewBox="0 0 150 150" version="1.1" xmlns="http://www.w3.org/2000/svg" xmlns:xlink="http://www.w3.org/1999/xlink">
    <g stroke="none" stroke-width="1" fill="none" fill-rule="evenodd">
        <g>
            <rect fill-rule="nonzero" x="0" y="0" width="150" height="150"></rect>
            <g transform="translate(25.000000, 11.000000)">
                <rect fill-rule="nonzero" x="0" y="0" width="100" height="128.125"></rect>
                <path d="M12.9265625,109.146875 C14.893239,109.146875 16.526556,109.896867 17.8265625,111.396875 C17.99323,111.580209 18.0765625,111.796874 18.0765625,112.046875 C18.0765625,112.413544 17.893231,112.721874 17.5265625,112.971875 C17.359895,113.088542 17.1682303,113.146875 16.9515625,113.146875 C16.5682272,113.146875 16.2432305,112.996876 15.9765625,112.696875 C15.5598938,112.246873 15.1057316,111.917709 14.6140625,111.709375 C14.1223934,111.501041 13.559899,111.396875 12.9265625,111.396875 C11.6432227,111.396875 10.6015665,111.826037 9.8015625,112.684375 C9.0015585,113.542713 8.6015625,114.680201 8.6015625,116.096875 C8.6015625,116.99688 8.78906063,117.801038 9.1640625,118.509375 C9.53906438,119.217712 10.0640591,119.771873 10.7390625,120.171875 C11.4140659,120.571877 12.1848915,120.771875 13.0515625,120.771875 C14.1849015,120.771875 15.101559,120.480211 15.8015625,119.896875 C16.1182308,119.66354 16.426561,119.546875 16.7265625,119.546875 C16.959897,119.546875 17.1765615,119.621874 17.3765625,119.771875 C17.6932307,120.038543 17.8515625,120.33854 17.8515625,120.671875 C17.8515625,120.921876 17.7515635,121.146874 17.5515625,121.346875 C16.3515565,122.463547 14.8515715,123.021875 13.0515625,123.021875 C11.7348893,123.021875 10.5515678,122.721878 9.5015625,122.121875 C8.45155725,121.521872 7.63073212,120.692714 7.0390625,119.634375 C6.44739288,118.576036 6.1515625,117.396882 6.1515625,116.096875 C6.1515625,114.763535 6.43905963,113.567714 7.0140625,112.509375 C7.58906538,111.451036 8.393224,110.626045 9.4265625,110.034375 C10.459901,109.442705 11.626556,109.146875 12.9265625,109.146875 Z M28.1859375,109.096875 C29.0692753,109.096875 29.760935,109.230207 30.2609375,109.496875 C30.76094,109.763543 31.0109375,110.096873 31.0109375,110.496875 C31.0109375,110.613542 31.0026043,110.696875 30.9859375,110.746875 C30.8359367,111.280211 30.5026068,111.546875 29.9859375,111.546875 C29.9026037,111.546875 29.777605,111.530209 29.6109375,111.496875 C28.9442675,111.380208 28.4026062,111.321875 27.9859375,111.321875 C26.7859315,111.321875 25.8192745,111.596872 25.0859375,112.146875 C24.3526005,112.696878 23.9859375,113.438537 23.9859375,114.371875 L23.9859375,121.671875 C23.9859375,122.071877 23.8817719,122.380207 23.6734375,122.596875 C23.4651031,122.813543 23.1526062,122.921875 22.7359375,122.921875 C22.3359355,122.921875 22.0276052,122.817709 21.8109375,122.609375 C21.5942697,122.401041 21.4859375,122.088544 21.4859375,121.671875 L21.4859375,110.496875 C21.4859375,110.096873 21.5942697,109.788543 21.8109375,109.571875 C22.0276052,109.355207 22.3359355,109.246875 22.7359375,109.246875 C23.569275,109.246875 23.9859375,109.663538 23.9859375,110.496875 L23.9859375,110.971875 C24.48594,110.388539 25.1026005,109.93021 25.8359375,109.596875 C26.5692745,109.26354 27.3526,109.096875 28.1859375,109.096875 Z M44.5203125,109.221875 C44.9036478,109.221875 45.211978,109.33854 45.4453125,109.571875 C45.678647,109.80521 45.7953125,110.11354 45.7953125,110.496875 L45.7953125,121.646875 C45.7953125,122.013543 45.678647,122.317707 45.4453125,122.559375 C45.211978,122.801043 44.9036478,122.921875 44.5203125,122.921875 C44.153644,122.921875 43.8494804,122.801043 43.6078125,122.559375 C43.3661446,122.317707 43.2453125,122.013543 43.2453125,121.646875 L43.2453125,121.371875 C42.7119765,121.905211 42.0786495,122.317707 41.3453125,122.609375 C40.6119755,122.901043 39.82865,123.046875 38.9953125,123.046875 C37.8453067,123.046875 36.8119837,122.796877 35.8953125,122.296875 C34.9786412,121.796873 34.2619817,121.067713 33.7453125,120.109375 C33.2286432,119.151037 32.9703125,117.996882 32.9703125,116.646875 L32.9703125,110.496875 C32.9703125,110.130206 33.0911446,109.826043 33.3328125,109.584375 C33.5744804,109.342707 33.878644,109.221875 34.2453125,109.221875 C34.611981,109.221875 34.9161446,109.342707 35.1578125,109.584375 C35.3994804,109.826043 35.5203125,110.130206 35.5203125,110.496875 L35.5203125,116.646875 C35.5203125,117.996882 35.8828089,119.017705 36.6078125,119.709375 C37.3328161,120.401045 38.2953065,120.746875 39.4953125,120.746875 C40.195316,120.746875 40.8328096,120.60521 41.4078125,120.321875 C41.9828154,120.03854 42.4328109,119.655211 42.7578125,119.171875 C43.0828141,118.688539 43.2453125,118.146878 43.2453125,117.546875 L43.2453125,110.496875 C43.2453125,110.11354 43.3661446,109.80521 43.6078125,109.571875 C43.8494804,109.33854 44.153644,109.221875 44.5203125,109.221875 Z M64.2796875,109.121875 C65.7296948,109.121875 66.9005164,109.59687 67.7921875,110.546875 C68.6838586,111.49688 69.1296875,112.821866 69.1296875,114.521875 L69.1296875,121.671875 C69.1296875,122.038544 69.013022,122.342707 68.7796875,122.584375 C68.546353,122.826043 68.2380228,122.946875 67.8546875,122.946875 C67.488019,122.946875 67.1838554,122.826043 66.9421875,122.584375 C66.7005196,122.342707 66.5796875,122.038544 66.5796875,121.671875 L66.5796875,114.521875 C66.5796875,113.505203 66.3255234,112.734378 65.8171875,112.209375 C65.3088516,111.684372 64.6296918,111.421875 63.7796875,111.421875 C62.9130165,111.421875 62.2005236,111.721872 61.6421875,112.321875 C61.0838514,112.921878 60.8046875,113.688537 60.8046875,114.621875 L60.8046875,121.671875 C60.8046875,122.038544 60.688022,122.342707 60.4546875,122.584375 C60.221353,122.826043 59.9130228,122.946875 59.5296875,122.946875 C59.163019,122.946875 58.8588554,122.826043 58.6171875,122.584375 C58.3755196,122.342707 58.2546875,122.038544 58.2546875,121.671875 L58.2546875,114.521875 C58.2546875,113.505203 58.0005234,112.734378 57.4921875,112.209375 C56.9838516,111.684372 56.3046918,111.421875 55.4546875,111.421875 C54.5713498,111.421875 53.8505236,111.721872 53.2921875,112.321875 C52.7338514,112.921878 52.4546875,113.688537 52.4546875,114.621875 L52.4546875,121.671875 C52.4546875,122.038544 52.338022,122.342707 52.1046875,122.584375 C51.871353,122.826043 51.5630228,122.946875 51.1796875,122.946875 C50.813019,122.946875 50.5088554,122.826043 50.2671875,122.584375 C50.0255196,122.342707 49.9046875,122.038544 49.9046875,121.671875 L49.9046875,110.546875 C49.9046875,110.16354 50.0255196,109.85521 50.2671875,109.621875 C50.5088554,109.388541 50.813019,109.271875 51.1796875,109.271875 C51.546356,109.271875 51.846353,109.384374 52.0796875,109.609375 C52.313022,109.834376 52.4380208,110.130206 52.4546875,110.496875 C52.888023,110.063539 53.4046845,109.726043 54.0046875,109.484375 C54.6046905,109.242707 55.254684,109.121875 55.9546875,109.121875 C56.8046918,109.121875 57.5671841,109.292707 58.2421875,109.634375 C58.9171909,109.976043 59.471352,110.463538 59.9046875,111.096875 C60.40469,110.480205 61.0296838,109.996877 61.7796875,109.646875 C62.5296913,109.296873 63.3630163,109.121875 64.2796875,109.121875 Z M74.2390625,103.396875 C74.605731,103.396875 74.9098946,103.513541 75.1515625,103.746875 C75.3932304,103.98021 75.5140625,104.28854 75.5140625,104.671875 L75.5140625,111.421875 C76.0973988,110.705205 76.805725,110.146877 77.6390625,109.746875 C78.4724,109.346873 79.372391,109.146875 80.3390625,109.146875 C81.5390685,109.146875 82.6265576,109.446872 83.6015625,110.046875 C84.5765674,110.646878 85.3432264,111.476036 85.9015625,112.534375 C86.4598986,113.592714 86.7390625,114.771868 86.7390625,116.071875 C86.7390625,117.371882 86.4390655,118.551036 85.8390625,119.609375 C85.2390595,120.667714 84.4099011,121.501039 83.3515625,122.109375 C82.2932239,122.717711 81.1224023,123.021875 79.8390625,123.021875 C78.5557228,123.021875 77.3932344,122.717711 76.3515625,122.109375 C75.3098906,121.501039 74.4848989,120.667714 73.8765625,119.609375 C73.2682261,118.551036 72.9640625,117.371882 72.9640625,116.071875 L72.9640625,104.671875 C72.9640625,104.28854 73.080728,103.98021 73.3140625,103.746875 C73.547397,103.513541 73.8557273,103.396875 74.2390625,103.396875 Z M79.8390625,120.771875 C80.6724,120.771875 81.4265591,120.56771 82.1015625,120.159375 C82.7765659,119.75104 83.3098939,119.188545 83.7015625,118.471875 C84.0932311,117.755205 84.2890625,116.955213 84.2890625,116.071875 C84.2890625,115.188537 84.0932311,114.392712 83.7015625,113.684375 C83.3098939,112.976038 82.7765659,112.41771 82.1015625,112.009375 C81.4265591,111.60104 80.6724,111.396875 79.8390625,111.396875 C79.005725,111.396875 78.2515659,111.60104 77.5765625,112.009375 C76.9015591,112.41771 76.3723978,112.976038 75.9890625,113.684375 C75.6057273,114.392712 75.4140625,115.188537 75.4140625,116.071875 C75.4140625,116.955213 75.6057273,117.755205 75.9890625,118.471875 C76.3723978,119.188545 76.9015591,119.75104 77.5765625,120.159375 C78.2515659,120.56771 79.005725,120.771875 79.8390625,120.771875 Z M89.6484375,104.646875 C89.6484375,104.280206 89.765103,103.98021 89.9984375,103.746875 C90.231772,103.513541 90.531769,103.396875 90.8984375,103.396875 C91.265106,103.396875 91.565103,103.513541 91.7984375,103.746875 C92.031772,103.98021 92.1484375,104.280206 92.1484375,104.646875 L92.1484375,118.296875 C92.1484375,118.913545 92.265103,119.421873 92.4984375,119.821875 C92.731772,120.221877 93.031769,120.421875 93.3984375,120.421875 L94.0234375,120.421875 C94.3567725,120.421875 94.6276031,120.53854 94.8359375,120.771875 C95.0442719,121.00521 95.1484375,121.305206 95.1484375,121.671875 C95.1484375,122.038544 94.9901058,122.33854 94.6734375,122.571875 C94.3567693,122.80521 93.94844,122.921875 93.4484375,122.921875 L93.3984375,122.921875 C92.6817673,122.921875 92.0359404,122.726044 91.4609375,122.334375 C90.8859346,121.942706 90.4401058,121.392712 90.1234375,120.684375 C89.8067693,119.976038 89.6484375,119.180213 89.6484375,118.296875 L89.6484375,104.646875 Z" fill="#ffffff"></path>
                <path d="M58.59375,33.59375 L91.40625,33.59375 L91.40625,63.28125 C91.40625,65.0071398 90.0071398,66.40625 88.28125,66.40625 L58.59375,66.40625 L58.59375,33.59375 Z" fill-rule="nonzero" transform="translate(75.000000, 50.000000) rotate(-45.000000) translate(-75.000000, -50.000000) "></path>
                <g transform="translate(1.562500, 1.562500)" fill="#ffffff" fill-rule="nonzero">
                    <path d="M32.03125,7.03125 L61.71875,7.03125 C63.4446398,7.03125 64.84375,8.43036016 64.84375,10.15625 L64.84375,39.84375 L32.03125,39.84375 L32.03125,7.03125 Z" transform="translate(48.437500, 23.437500) rotate(-45.000000) translate(-48.437500, -23.437500) "></path>
                    <path d="M32.03125,57.03125 L64.84375,57.03125 L64.84375,89.84375 L35.15625,89.84375 C33.4303602,89.84375 32.03125,88.4446398 32.03125,86.71875 L32.03125,57.03125 Z" transform="translate(48.437500, 73.437500) rotate(-45.000000) translate(-48.437500, -73.437500) "></path>
                    <path d="M10.15625,32.03125 L39.84375,32.03125 L39.84375,64.84375 L7.03125,64.84375 L7.03125,35.15625 C7.03125,33.4303602 8.43036016,32.03125 10.15625,32.03125 Z" transform="translate(23.437500, 48.437500) rotate(-45.000000) translate(-23.437500, -48.437500) "></path>
                </g>
            </g>
        </g>
    </g>
</svg>