<?xml version="1.0" encoding="utf-8"?>
<!-- Generator: Adobe Illustrator 23.0.2, SVG Export Plug-In . SVG Version: 6.00 Build 0)  -->
<svg version="1.1" id="Ebene_1" xmlns="http://www.w3.org/2000/svg" xmlns:xlink="http://www.w3.org/1999/xlink" x="0px" y="0px"
	 viewBox="0 0 245.4 122.9" style="enable-background:new 0 0 245.4 122.9;" xml:space="preserve">
<style type="text/css">
	.st0{fill:#009688;}
</style>
<title>crumbl-logo/drafts/CL--1</title>
<desc>Created with Sketch.</desc>
<path class="st0" d="M51.8,36l21-21c1.2-1.2,3.2-1.2,4.4,0l21,21L75,59.2L51.8,36z M51.8,86L75,62.8L98.2,86l-21,21
	c-1.2,1.2-3.2,1.2-4.4,0L51.8,86z M29,58.8l21-21L73.2,61L50,84.2l-21-21C27.8,62,27.8,60,29,58.8z M106.9,52.6c2.5,0,4.6,1,6.3,2.9
	c0.2,0.2,0.3,0.5,0.3,0.8c0,0.5-0.2,0.9-0.7,1.2c-0.2,0.2-0.5,0.2-0.7,0.2c-0.5,0-0.9-0.2-1.3-0.6c-0.5-0.6-1.1-1-1.8-1.3
	c-0.6-0.3-1.4-0.4-2.2-0.4c-1.7,0-3,0.6-4,1.7c-1,1.1-1.5,2.6-1.5,4.4c0,1.2,0.2,2.2,0.7,3.1s1.2,1.6,2,2.1c0.9,0.5,1.9,0.8,3,0.8
	c1.5,0,2.6-0.4,3.5-1.1c0.4-0.3,0.8-0.5,1.2-0.5c0.3,0,0.6,0.1,0.8,0.3c0.4,0.3,0.6,0.7,0.6,1.2c0,0.3-0.1,0.6-0.4,0.9
	c-1.5,1.4-3.5,2.2-5.8,2.2c-1.7,0-3.2-0.4-4.6-1.2c-1.4-0.8-2.4-1.8-3.2-3.2c-0.8-1.4-1.1-2.9-1.1-4.6c0-1.7,0.4-3.3,1.1-4.6
	c0.7-1.4,1.8-2.4,3.1-3.2C103.8,53,105.3,52.6,106.9,52.6z M126.6,52.6c1.1,0,2,0.2,2.7,0.5c0.6,0.3,1,0.8,1,1.3c0,0.2,0,0.3,0,0.3
	c-0.2,0.7-0.6,1-1.3,1c-0.1,0-0.3,0-0.5-0.1c-0.9-0.2-1.6-0.2-2.1-0.2c-1.5,0-2.8,0.4-3.7,1.1c-0.9,0.7-1.4,1.7-1.4,2.9v9.4
	c0,0.5-0.1,0.9-0.4,1.2c-0.3,0.3-0.7,0.4-1.2,0.4c-0.5,0-0.9-0.1-1.2-0.4c-0.3-0.3-0.4-0.7-0.4-1.2V54.4c0-0.5,0.1-0.9,0.4-1.2
	c0.3-0.3,0.7-0.4,1.2-0.4c1.1,0,1.6,0.5,1.6,1.6V55c0.6-0.8,1.4-1.3,2.4-1.8C124.5,52.8,125.5,52.6,126.6,52.6z M147.7,52.7
	c0.5,0,0.9,0.2,1.2,0.5c0.3,0.3,0.5,0.7,0.5,1.2v14.4c0,0.5-0.2,0.9-0.5,1.2c-0.3,0.3-0.7,0.5-1.2,0.5c-0.5,0-0.9-0.2-1.2-0.5
	c-0.3-0.3-0.5-0.7-0.5-1.2v-0.4c-0.7,0.7-1.5,1.2-2.5,1.6c-0.9,0.4-2,0.6-3,0.6c-1.5,0-2.8-0.3-4-1c-1.2-0.6-2.1-1.6-2.8-2.8
	s-1-2.7-1-4.5v-7.9c0-0.5,0.2-0.9,0.5-1.2c0.3-0.3,0.7-0.5,1.2-0.5c0.5,0,0.9,0.2,1.2,0.5c0.3,0.3,0.5,0.7,0.5,1.2v7.9
	c0,1.7,0.5,3.1,1.4,4c0.9,0.9,2.2,1.3,3.7,1.3c0.9,0,1.7-0.2,2.5-0.5c0.7-0.4,1.3-0.9,1.7-1.5c0.4-0.6,0.6-1.3,0.6-2.1v-9.1
	c0-0.5,0.2-0.9,0.5-1.2C146.8,52.9,147.2,52.7,147.7,52.7z M173.2,52.6c1.9,0,3.4,0.6,4.5,1.8c1.2,1.2,1.7,2.9,1.7,5.1v9.2
	c0,0.5-0.2,0.9-0.5,1.2c-0.3,0.3-0.7,0.5-1.2,0.5c-0.5,0-0.9-0.2-1.2-0.5c-0.3-0.3-0.5-0.7-0.5-1.2v-9.2c0-1.3-0.3-2.3-1-3
	c-0.7-0.7-1.5-1-2.6-1c-1.1,0-2,0.4-2.8,1.2c-0.7,0.8-1.1,1.8-1.1,3v9.1c0,0.5-0.2,0.9-0.5,1.2c-0.3,0.3-0.7,0.5-1.2,0.5
	c-0.5,0-0.9-0.2-1.2-0.5c-0.3-0.3-0.5-0.7-0.5-1.2v-9.2c0-1.3-0.3-2.3-1-3c-0.7-0.7-1.5-1-2.6-1c-1.1,0-2.1,0.4-2.8,1.2
	c-0.7,0.8-1.1,1.8-1.1,3v9.1c0,0.5-0.2,0.9-0.5,1.2s-0.7,0.5-1.2,0.5c-0.5,0-0.9-0.2-1.2-0.5s-0.5-0.7-0.5-1.2V54.4
	c0-0.5,0.2-0.9,0.5-1.2c0.3-0.3,0.7-0.5,1.2-0.5c0.5,0,0.9,0.1,1.2,0.4c0.3,0.3,0.5,0.7,0.5,1.1c0.6-0.6,1.2-1,2-1.3
	c0.8-0.3,1.6-0.5,2.5-0.5c1.1,0,2.1,0.2,3,0.7c0.9,0.4,1.6,1.1,2.1,1.9c0.6-0.8,1.5-1.4,2.4-1.9C170.9,52.8,172,52.6,173.2,52.6z
	 M186,45.2c0.5,0,0.9,0.2,1.2,0.5c0.3,0.3,0.5,0.7,0.5,1.2v8.7c0.8-0.9,1.7-1.6,2.7-2.2c1.1-0.5,2.2-0.8,3.5-0.8
	c1.5,0,3,0.4,4.2,1.2s2.2,1.8,3,3.2c0.7,1.4,1.1,2.9,1.1,4.6c0,1.7-0.4,3.2-1.2,4.6c-0.8,1.4-1.8,2.4-3.2,3.2
	c-1.4,0.8-2.9,1.2-4.5,1.2s-3.2-0.4-4.5-1.2c-1.3-0.8-2.4-1.9-3.2-3.2s-1.2-2.9-1.2-4.6V46.9c0-0.5,0.2-0.9,0.5-1.2
	C185.1,45.4,185.5,45.2,186,45.2z M193.3,67.6c1.1,0,2-0.3,2.9-0.8c0.9-0.5,1.6-1.3,2.1-2.2c0.5-0.9,0.8-2,0.8-3.1
	c0-1.1-0.3-2.2-0.8-3.1c-0.5-0.9-1.2-1.6-2.1-2.2c-0.9-0.5-1.8-0.8-2.9-0.8c-1.1,0-2,0.3-2.9,0.8c-0.9,0.5-1.6,1.2-2,2.2
	c-0.5,0.9-0.7,1.9-0.7,3.1c0,1.1,0.2,2.2,0.7,3.1c0.5,0.9,1.2,1.7,2,2.2C191.2,67.4,192.2,67.6,193.3,67.6z M205.9,46.8
	c0-0.5,0.2-0.9,0.5-1.2c0.3-0.3,0.7-0.5,1.2-0.5c0.5,0,0.9,0.2,1.2,0.5c0.3,0.3,0.5,0.7,0.5,1.2v17.6c0,0.8,0.2,1.5,0.5,2
	c0.3,0.5,0.7,0.8,1.2,0.8h0.8c0.4,0,0.8,0.2,1,0.5c0.3,0.3,0.4,0.7,0.4,1.2c0,0.5-0.2,0.9-0.6,1.2c-0.4,0.3-0.9,0.5-1.6,0.5h-0.1
	c-0.9,0-1.8-0.3-2.5-0.8s-1.3-1.2-1.7-2.1c-0.4-0.9-0.6-1.9-0.6-3.1V46.8z"/>
</svg>
